<svg width="100%" height="100%" viewBox="0 0 232 96" version="1.1" xmlns="http://www.w3.org/2000/svg" xmlns:xlink="http://www.w3.org/1999/xlink" xml:space="preserve" xmlns:serif="http://www.serif.com/" style="fill-rule:evenodd;clip-rule:evenodd;stroke-linejoin:round;stroke-miterlimit:2;"><g><path d="M102.176,0.633c1.689,-0.844 3.677,-0.844 5.366,0c7.429,3.715 28.27,14.135 36.672,18.336c0.677,0.339 1.105,1.032 1.105,1.789c0,0.758 -0.428,1.45 -1.105,1.789c-4.285,2.142 -11.363,5.681 -15.205,7.603c-1.69,0.844 -3.678,0.844 -5.367,-0c-4.124,-2.063 -11.975,-5.988 -16.1,-8.05c-1.689,-0.845 -3.677,-0.845 -5.366,-0c-3.843,1.921 -10.921,5.46 -15.205,7.602c-0.678,0.339 -1.106,1.032 -1.106,1.789c0,0.758 0.428,1.45 1.106,1.789c4.284,2.142 11.362,5.681 15.205,7.603c1.689,0.844 3.677,0.844 5.366,-0c4.125,-2.062 11.976,-5.988 16.1,-8.05c1.689,-0.845 3.677,-0.845 5.367,-0c7.428,3.714 28.269,14.135 36.671,18.336c0.678,0.338 1.106,1.031 1.106,1.788c-0,0.758 -0.428,1.451 -1.106,1.789c-3.97,1.986 -10.34,5.17 -14.311,7.156c-0.677,0.338 -1.105,1.031 -1.105,1.789c-0,0.757 0.428,1.45 1.105,1.788c8.086,4.043 27.692,13.846 35.777,17.889c0.678,0.339 1.106,1.031 1.106,1.789c-0,0.757 -0.428,1.45 -1.106,1.789c-4.284,2.142 -11.362,5.681 -15.205,7.602c-1.689,0.845 -3.677,0.845 -5.366,0c-10.476,-5.238 -48.557,-24.278 -59.033,-29.516c-1.689,-0.844 -3.677,-0.844 -5.366,0c-4.124,2.062 -11.976,5.988 -16.1,8.05c-1.689,0.845 -3.677,0.845 -5.366,0c-3.843,-1.921 -10.921,-5.46 -15.206,-7.603c-0.677,-0.338 -1.105,-1.031 -1.105,-1.788c-0,-0.758 0.428,-1.451 1.105,-1.789c3.971,-1.986 10.341,-5.17 14.311,-7.156c0.678,-0.338 1.106,-1.031 1.106,-1.789c-0,-0.757 -0.428,-1.45 -1.106,-1.788c-8.085,-4.043 -27.691,-13.846 -35.777,-17.889c-0.677,-0.339 -1.105,-1.031 -1.105,-1.789c-0,-0.757 0.428,-1.45 1.105,-1.789c11.59,-5.794 47.941,-23.97 58.138,-29.069Z"/><path d="M21.677,43.566c-1.689,-0.845 -3.677,-0.845 -5.366,-0c-3.843,1.921 -10.921,5.46 -15.205,7.603c-0.678,0.338 -1.106,1.031 -1.106,1.788c-0,0.758 0.428,1.45 1.106,1.789c8.401,4.201 29.242,14.622 36.671,18.336c1.689,0.845 3.677,0.845 5.367,0c3.842,-1.921 10.92,-5.46 15.205,-7.603c0.677,-0.338 1.105,-1.031 1.105,-1.788c0,-0.758 -0.428,-1.451 -1.105,-1.789c-8.402,-4.201 -29.243,-14.622 -36.672,-18.336Z"/><path d="M230.079,65.479c0.677,-0.338 1.106,-1.031 1.106,-1.788c-0,-0.758 -0.428,-1.451 -1.106,-1.789c-8.402,-4.201 -29.243,-14.622 -36.672,-18.336c-1.689,-0.845 -3.677,-0.845 -5.366,-0c-3.843,1.921 -10.921,5.46 -15.205,7.603c-0.678,0.338 -1.106,1.031 -1.106,1.788c0,0.758 0.428,1.45 1.106,1.789c8.401,4.201 29.242,14.622 36.671,18.336c1.689,0.845 3.678,0.845 5.367,0c3.842,-1.921 10.92,-5.46 15.205,-7.603Z"/></g></svg>