<?xml version="1.0" encoding="UTF-8" standalone="no"?>
<!DOCTYPE svg PUBLIC "-//W3C//DTD SVG 1.1//EN" "http://www.w3.org/Graphics/SVG/1.1/DTD/svg11.dtd">
<svg width="100%" height="100%" viewBox="0 0 215 108" version="1.1" xmlns="http://www.w3.org/2000/svg" xmlns:xlink="http://www.w3.org/1999/xlink" xml:space="preserve" xmlns:serif="http://www.serif.com/" style="fill-rule:evenodd;clip-rule:evenodd;stroke-linejoin:round;stroke-miterlimit:2;">
    <path d="M108.673,0.671c-0.845,-0.422 -1.839,-0.422 -2.683,-0c-8.232,4.116 -51.861,25.93 -61.269,30.634c-0.338,0.169 -0.552,0.516 -0.552,0.894c-0,0.379 0.214,0.725 0.552,0.895c6.984,3.492 32.371,16.185 39.355,19.677c0.339,0.17 0.553,0.516 0.553,0.895c-0,0.378 -0.214,0.725 -0.553,0.894c-4.043,2.021 -13.846,6.923 -17.888,8.944c-0.339,0.17 -0.553,0.516 -0.553,0.895c-0,0.379 0.214,0.725 0.553,0.894c4.201,2.101 14.621,7.311 18.335,9.168c0.845,0.422 1.839,0.422 2.684,0c3.854,-1.927 14.928,-7.464 18.783,-9.391c0.844,-0.423 1.838,-0.423 2.683,-0c6.407,3.203 33.842,16.921 40.249,20.124c0.845,0.422 1.839,0.422 2.683,0c3.715,-1.857 14.135,-7.067 18.336,-9.168c0.339,-0.169 0.553,-0.515 0.553,-0.894c-0,-0.379 -0.214,-0.725 -0.553,-0.895c-6.984,-3.491 -32.371,-16.185 -39.355,-19.677c-0.338,-0.169 -0.552,-0.516 -0.552,-0.894c-0,-0.379 0.214,-0.725 0.552,-0.895c4.08,-2.039 14.034,-7.017 18.135,-9.067c0.34,-0.17 0.554,-0.519 0.553,-0.899c-0.002,-0.381 -0.22,-0.727 -0.562,-0.894c-4.269,-2.082 -14.848,-7.241 -18.583,-9.062c-0.839,-0.41 -1.821,-0.405 -2.657,0.013c-3.838,1.919 -14.939,7.47 -18.799,9.4c-0.845,0.422 -1.839,0.422 -2.683,-0c-3.715,-1.857 -14.135,-7.068 -18.336,-9.168c-0.339,-0.17 -0.553,-0.516 -0.553,-0.895c0,-0.378 0.214,-0.725 0.553,-0.894c4.201,-2.101 14.621,-7.311 18.336,-9.168c0.844,-0.422 1.838,-0.422 2.683,0c3.854,1.927 14.929,7.464 18.783,9.392c0.844,0.422 1.839,0.422 2.683,-0c3.715,-1.858 14.135,-7.068 18.336,-9.168c0.339,-0.17 0.553,-0.516 0.553,-0.895c-0,-0.379 -0.214,-0.725 -0.553,-0.894c-7.143,-3.571 -33.534,-16.767 -39.802,-19.901Z"/>
    <path d="M173.072,32.87c-0.845,-0.422 -1.839,-0.422 -2.684,0c-3.714,1.857 -14.134,7.068 -18.335,9.168c-0.339,0.169 -0.553,0.516 -0.553,0.894c-0,0.379 0.214,0.726 0.553,0.895c7.142,3.571 33.534,16.767 39.802,19.901c0.844,0.422 1.838,0.422 2.683,-0c3.714,-1.857 14.135,-7.067 18.336,-9.168c0.338,-0.169 0.552,-0.516 0.552,-0.894c0,-0.379 -0.214,-0.725 -0.552,-0.895c-7.143,-3.571 -33.535,-16.767 -39.802,-19.901Z"/>
    <path d="M108.673,22.137c-0.845,-0.422 -1.839,-0.422 -2.683,0c-3.715,1.857 -14.135,7.067 -18.336,9.168c-0.339,0.169 -0.553,0.516 -0.553,0.894c0,0.379 0.214,0.725 0.553,0.895c4.201,2.1 14.621,7.311 18.336,9.168c0.844,0.422 1.838,0.422 2.683,-0c3.714,-1.857 14.135,-7.068 18.336,-9.168c0.338,-0.17 0.552,-0.516 0.552,-0.895c0,-0.378 -0.214,-0.725 -0.552,-0.894c-4.201,-2.101 -14.622,-7.311 -18.336,-9.168Z" style="fill:#ba5624;"/>
    <path d="M22.808,43.603c-0.845,-0.422 -1.839,-0.422 -2.683,0c-3.715,1.858 -14.135,7.068 -18.336,9.168c-0.339,0.17 -0.553,0.516 -0.553,0.895c0,0.378 0.214,0.725 0.553,0.894c7.142,3.571 33.534,16.767 39.802,19.901c0.844,0.422 1.839,0.422 2.683,0c3.715,-1.857 14.135,-7.067 18.336,-9.168c0.339,-0.169 0.553,-0.515 0.553,-0.894c-0,-0.379 -0.214,-0.725 -0.553,-0.895c-7.143,-3.571 -33.534,-16.767 -39.802,-19.901Z"/>
    <path d="M107.331,0l-107.331,53.666l107.331,53.665l107.332,-53.665l-107.332,-53.666Z" style="fill:none;"/>
</svg>
